<?xml version="1.0" standalone="no"?>
<!DOCTYPE svg PUBLIC "-//W3C//DTD SVG 20010904//EN"
 "http://www.w3.org/TR/2001/REC-SVG-20010904/DTD/svg10.dtd">
<svg version="1.0" xmlns="http://www.w3.org/2000/svg"
 width="800.000000pt" height="800.000000pt" viewBox="0 0 800.000000 800.000000"
 preserveAspectRatio="xMidYMid meet">
<metadata>
Created by potrace 1.14, written by Peter Selinger 2001-2017
</metadata>
<g transform="translate(0.000000,800.000000) scale(0.100000,-0.100000)"
fill="#000000" stroke="none">
<path d="M2410 7976 c0 -12 7 -31 15 -42 15 -20 20 -54 8 -54 -4 0 -17 12 -29
27 -21 27 -23 27 -41 11 -19 -17 -55 -15 -80 4 -13 11 -53 -23 -53 -45 0 -8
20 -22 45 -33 25 -10 45 -22 45 -28 0 -5 7 -17 15 -26 14 -16 11 -19 -35 -43
l-50 -26 -42 24 c-50 29 -68 31 -68 10 0 -18 -36 -20 -43 -2 -3 6 -6 3 -6 -8
-1 -11 10 -32 22 -45 13 -14 27 -38 31 -53 5 -23 3 -27 -14 -27 -11 0 -20 -6
-20 -14 0 -7 -8 -16 -17 -19 -10 -3 -29 -12 -43 -20 -14 -8 -42 -22 -62 -31
-41 -17 -50 -36 -18 -36 11 0 29 -5 40 -12 24 -15 37 -4 20 17 -10 12 -10 15
2 15 8 0 19 -14 24 -31 5 -17 21 -38 37 -47 23 -14 30 -15 48 -4 18 12 24 11
43 -7 12 -12 30 -21 39 -21 8 0 16 -8 16 -17 0 -10 1 -25 2 -33 5 -32 -2 -60
-14 -60 -22 0 -86 59 -89 83 -2 17 -11 23 -35 25 -19 2 -33 9 -33 16 0 8 -7
19 -16 26 -13 11 -16 10 -21 -8 -5 -21 -14 -26 -41 -23 -13 2 -28 -26 -19 -36
7 -7 67 19 67 29 0 5 5 8 11 8 6 0 8 -7 5 -16 -4 -9 -1 -23 5 -30 8 -10 6 -18
-8 -32 -26 -27 -51 -34 -49 -15 0 9 -5 18 -13 21 -9 3 -11 -1 -6 -17 12 -38
-22 -24 -66 29 -23 28 -44 49 -45 47 -6 -5 21 -72 41 -101 18 -27 18 -29 1
-41 -17 -13 -16 -14 7 -29 23 -16 77 -111 77 -138 0 -7 9 -30 20 -51 34 -63
22 -64 -52 -3 -39 32 -59 58 -77 100 -12 31 -29 56 -37 56 -11 0 -12 -4 -4
-17 5 -10 14 -36 20 -59 7 -29 25 -55 61 -89 34 -32 47 -51 38 -54 -7 -2 -15
1 -17 8 -2 6 -9 11 -15 11 -7 0 -21 13 -32 30 -33 49 -61 48 -34 -1 7 -14 7
-24 0 -33 -8 -9 4 -27 44 -70 31 -32 53 -61 50 -66 -9 -14 -63 10 -68 31 -9
33 -37 23 -37 -12 0 -39 20 -109 32 -109 4 0 8 -5 8 -11 0 -6 21 -31 46 -56
26 -26 43 -51 40 -59 -7 -18 -20 -18 -36 1 -7 8 -19 15 -26 15 -8 0 -14 4 -14
9 0 5 -13 11 -30 13 -16 3 -30 1 -30 -4 0 -4 5 -8 12 -8 15 0 88 -50 88 -60 0
-5 -25 -34 -56 -67 -53 -55 -75 -103 -47 -103 7 0 13 -7 13 -15 0 -8 -6 -15
-14 -15 -8 0 -35 -20 -59 -45 -25 -25 -54 -45 -64 -45 -17 -1 -17 -1 1 -15 16
-12 17 -17 6 -30 -7 -9 -9 -22 -4 -32 7 -17 10 -27 13 -47 0 -5 15 9 32 30 22
28 37 38 52 36 30 -5 32 -9 17 -27 -11 -13 -10 -14 4 -9 11 4 16 1 16 -10 0
-9 -7 -16 -15 -16 -8 0 -15 -7 -15 -15 0 -18 12 -19 28 -3 17 17 26 3 13 -20
-6 -12 -11 -30 -11 -41 0 -11 -11 -33 -25 -49 -24 -28 -32 -52 -19 -52 3 0 28
18 54 40 26 22 51 40 54 40 15 0 3 -43 -24 -87 -16 -26 -32 -61 -35 -78 -5
-26 -4 -27 5 -10 13 24 49 49 58 41 6 -7 -15 -111 -31 -146 -15 -34 -15 -45 3
-45 12 0 14 -11 12 -48 -3 -50 8 -61 26 -24 9 19 11 17 11 -22 1 -65 12 -43
16 31 3 81 15 148 26 148 5 0 9 -18 9 -39 0 -22 4 -42 8 -45 5 -3 4 -37 -1
-76 -9 -74 -3 -125 13 -115 6 3 10 25 10 49 0 23 4 46 9 52 5 5 11 18 13 28 1
11 3 -71 2 -182 0 -111 4 -202 9 -202 5 0 7 -17 6 -37 -3 -52 9 -101 37 -149
13 -23 26 -61 30 -84 4 -23 18 -63 32 -89 27 -50 44 -108 33 -113 -8 -3 -52
-130 -47 -135 5 -5 74 26 80 36 3 5 1 51 -4 103 -6 51 -12 110 -14 130 -2 21
-8 43 -13 50 -6 7 -14 48 -18 90 -6 69 -4 80 15 105 18 25 19 34 10 58 -9 23
-7 42 9 94 26 91 35 145 22 136 -6 -3 -11 -13 -11 -21 0 -8 -8 -24 -18 -35
-21 -22 -42 -83 -42 -122 0 -14 -4 -29 -10 -32 -16 -10 -12 68 6 111 9 22 21
42 27 46 12 7 36 90 37 126 0 12 -6 22 -12 22 -7 0 -5 5 5 11 24 14 22 32 -3
24 -14 -5 -20 -2 -20 9 0 9 7 16 15 16 8 0 15 5 15 10 0 14 -13 13 -28 -2 -24
-24 -23 1 2 48 46 89 78 242 49 236 -17 -3 -16 23 1 37 8 6 16 24 20 39 3 15
13 61 21 102 9 41 19 89 22 105 3 17 13 41 23 55 20 30 50 109 50 133 0 20
116 107 143 107 10 0 32 9 48 20 18 14 48 22 86 24 77 5 82 7 53 16 -19 6 -13
8 30 9 30 1 67 8 82 15 18 10 53 14 100 12 86 -3 108 1 108 20 0 11 21 13 110
10 74 -3 108 -1 104 6 -5 7 5 9 27 5 19 -3 70 -12 114 -18 55 -9 89 -20 108
-36 16 -13 41 -23 57 -23 16 0 31 -4 34 -9 3 -4 28 -11 56 -13 29 -3 63 -14
78 -25 15 -11 51 -26 80 -33 47 -11 55 -10 72 5 11 10 26 15 34 12 9 -4 18 -2
21 3 4 6 14 6 27 -1 14 -8 28 -7 48 1 16 7 34 9 39 5 6 -3 11 1 11 9 0 18 -1
17 54 20 22 1 41 7 43 13 3 9 12 9 30 2 34 -13 85 -13 171 0 49 8 79 8 92 1
22 -12 202 -16 245 -6 17 4 37 11 46 16 23 12 252 23 321 15 32 -4 65 -13 73
-21 7 -8 18 -14 23 -14 6 0 22 -14 36 -31 20 -24 26 -41 26 -79 0 -27 4 -51 9
-55 5 -3 12 -19 16 -36 5 -21 11 -29 21 -25 19 7 34 -32 23 -61 -5 -13 -6 -30
-2 -39 3 -9 0 -20 -8 -25 -12 -8 -12 -10 1 -19 11 -7 16 -5 18 10 2 11 8 20
13 20 5 0 8 -3 7 -7 -2 -10 21 -93 33 -115 5 -10 9 -31 9 -48 0 -16 5 -30 10
-30 18 0 10 -29 -10 -35 -12 -4 -20 -15 -20 -27 0 -12 3 -19 6 -15 3 3 11 1
18 -4 6 -5 19 -15 28 -22 17 -12 21 -37 19 -115 -1 -24 -5 -41 -10 -38 -12 8
-41 -3 -41 -15 0 -5 12 -9 28 -9 21 0 24 -2 12 -10 -8 -5 -10 -10 -5 -10 7 0
12 -43 13 -112 2 -61 5 -116 8 -120 3 -5 -14 -8 -38 -6 -38 3 -45 7 -57 35 -8
18 -22 35 -32 38 -10 3 -16 12 -13 19 3 8 -8 18 -26 26 -24 10 -28 15 -18 22
8 6 9 11 3 14 -49 21 -60 31 -57 52 2 14 -2 22 -12 22 -8 0 -24 14 -36 30 -12
17 -27 30 -33 30 -7 0 -25 7 -42 16 -16 8 -40 12 -52 9 -14 -3 -40 3 -64 16
-23 11 -47 18 -55 15 -7 -3 -16 -1 -19 3 -2 5 -37 9 -77 10 -40 0 -110 4 -156
9 -61 6 -91 4 -114 -5 -16 -7 -43 -13 -59 -13 -15 0 -53 -13 -84 -29 -74 -38
-100 -44 -115 -26 -8 10 -17 12 -29 6 -12 -7 -16 -25 -16 -75 0 -36 3 -66 7
-66 13 0 9 -35 -4 -48 -7 -7 -14 -17 -14 -22 -1 -6 -2 -13 -3 -16 0 -4 -8 -1
-16 6 -13 11 -15 7 -15 -28 0 -23 -4 -43 -9 -46 -5 -3 -14 -26 -20 -51 -7 -27
-17 -45 -25 -45 -8 0 -21 -13 -29 -28 -12 -24 -11 -30 1 -41 9 -9 11 -22 7
-40 -4 -14 -8 -77 -9 -140 -1 -107 0 -114 20 -123 19 -9 23 -24 33 -126 12
-116 20 -156 47 -220 8 -18 14 -38 14 -44 0 -14 57 -66 80 -73 9 -3 24 -21 33
-40 12 -26 23 -35 41 -35 14 0 28 -4 31 -10 16 -26 31 -8 32 41 1 57 6 67 27
49 9 -6 21 -10 28 -7 7 2 21 0 30 -4 10 -6 19 -5 23 1 9 15 48 12 72 -5 14
-10 24 -12 28 -5 3 5 17 10 30 10 18 0 26 -7 31 -26 4 -16 12 -23 20 -20 20 8
45 -4 37 -17 -3 -6 -1 -7 6 -3 6 4 9 11 6 16 -8 12 44 50 69 50 12 0 28 -6 35
-13 11 -10 14 -9 18 1 3 6 9 10 13 7 5 -3 14 4 20 15 6 11 15 20 21 20 5 0 19
9 31 20 12 11 28 20 35 20 7 0 13 7 13 15 0 10 10 15 28 15 37 0 72 10 72 21
0 5 -6 9 -12 9 -7 0 -18 11 -25 25 -10 23 -9 25 14 25 14 0 32 -8 39 -17 12
-16 13 -14 14 19 0 21 -3 37 -7 37 -5 -1 -17 -1 -28 0 -17 1 -17 3 -5 11 10 6
22 5 36 -5 24 -15 34 -11 34 16 0 28 44 50 87 43 21 -3 49 -1 63 5 14 5 20 10
13 10 -6 1 -10 9 -9 19 2 9 7 37 12 62 5 25 9 51 9 58 0 7 11 22 25 32 17 14
20 20 10 20 -9 0 -33 18 -53 39 -29 30 -37 47 -37 75 0 26 4 36 15 36 11 0 14
-7 9 -25 -5 -21 -3 -25 16 -25 19 0 21 4 15 28 -3 15 -14 35 -22 45 -15 16
-14 17 8 17 13 0 31 4 39 10 16 10 8 15 -33 22 -34 6 -22 23 18 26 26 2 46 11
58 25 14 17 17 18 13 5 -4 -13 0 -18 14 -18 11 0 20 -3 21 -7 3 -28 9 -53 22
-88 8 -22 18 -69 22 -104 4 -36 13 -71 20 -78 7 -7 21 -56 30 -109 19 -101 16
-290 -4 -379 -13 -53 -31 -332 -31 -469 0 -61 -5 -148 -11 -195 -16 -134 -59
-361 -79 -416 -10 -27 -21 -63 -25 -80 -3 -16 -24 -67 -46 -113 -21 -46 -39
-93 -39 -106 0 -12 -5 -27 -12 -34 -9 -9 -9 -12 1 -12 11 0 12 -87 8 -477 -5
-482 -6 -507 -28 -585 -6 -24 -11 -76 -10 -117 1 -49 -3 -77 -10 -82 -9 -5 -8
-14 4 -32 19 -29 15 -131 -7 -157 -7 -8 -23 -42 -36 -75 -13 -33 -33 -73 -45
-90 -26 -36 -42 -72 -48 -105 -3 -14 -9 -35 -12 -48 -5 -14 -3 -22 4 -22 6 0
11 7 11 16 0 9 20 50 45 92 25 41 45 80 45 87 0 7 12 39 26 71 54 120 149 445
159 546 4 31 12 61 18 67 10 7 13 -42 15 -218 1 -125 7 -242 12 -261 6 -19 10
-57 10 -83 0 -56 19 -61 32 -9 5 18 13 32 19 32 13 0 7 -125 -11 -250 -11 -81
-3 -290 12 -290 5 0 12 10 17 22 16 43 17 33 61 -362 6 -52 17 -147 25 -210
26 -193 55 -482 55 -542 l0 -58 1160 0 1160 0 0 1093 0 1093 -77 21 c-43 12
-112 29 -153 38 -41 9 -104 28 -140 41 -36 13 -91 31 -123 39 -32 8 -77 23
-100 33 -23 10 -69 27 -102 37 -33 9 -114 37 -180 61 -66 25 -127 44 -135 44
-8 0 -67 19 -130 41 -63 22 -126 43 -140 46 -69 14 -128 38 -152 64 -15 16
-31 29 -35 29 -5 0 -15 10 -23 22 -8 12 -32 41 -52 63 -96 102 -138 151 -138
157 0 4 -20 36 -45 71 -25 36 -45 68 -45 72 0 4 -20 36 -45 71 -25 34 -45 65
-45 68 0 9 -73 110 -82 114 -5 2 -8 10 -8 17 0 7 -22 40 -50 72 -27 32 -59 78
-71 103 -12 25 -30 58 -41 73 -11 15 -28 62 -38 104 -11 42 -24 79 -30 83 -20
12 -23 103 -5 170 9 36 20 103 24 150 5 56 22 129 49 213 23 70 45 146 49 170
6 38 5 41 -10 29 -9 -8 -19 -24 -23 -35 -4 -12 -14 -33 -22 -46 -22 -32 -48
-113 -62 -191 -7 -36 -21 -92 -31 -124 -11 -33 -19 -84 -19 -115 0 -86 -16
-126 -68 -176 -44 -42 -92 -60 -92 -34 0 5 -4 8 -9 5 -12 -8 -29 14 -34 44 -3
14 -10 44 -16 68 -7 23 -9 47 -6 52 3 5 8 59 10 120 3 100 6 113 27 134 12 13
32 25 43 27 12 3 29 23 42 49 17 35 21 57 19 111 -2 36 -6 71 -9 76 -3 5 0 21
8 36 13 26 14 88 0 119 -8 19 -10 53 -7 111 3 55 28 48 57 -16 12 -29 33 -101
44 -159 21 -101 21 -122 4 -212 -5 -26 -4 -28 8 -15 20 21 66 115 83 171 14
44 34 216 28 248 -1 8 -5 35 -8 60 -3 25 -12 52 -20 61 -8 8 -14 21 -14 27 0
15 -49 52 -70 52 -10 0 -39 -21 -65 -46 l-47 -46 4 66 c3 50 9 71 26 89 20 21
21 25 8 30 -24 10 -19 41 14 82 17 21 33 50 36 64 13 58 38 127 50 136 11 8
44 136 44 168 0 20 32 2 61 -35 49 -63 104 -110 65 -55 -9 12 -25 38 -35 57
-10 19 -31 45 -46 58 -20 17 -24 28 -19 45 31 97 46 180 45 240 -2 42 2 67 8
67 17 0 15 249 -2 256 -10 3 -13 20 -11 54 1 34 -2 50 -12 54 -8 3 -14 13 -14
22 0 9 -9 27 -20 41 -20 26 -28 79 -10 68 22 -13 31 7 15 31 -9 14 -13 33 -10
45 5 15 -3 28 -28 52 -44 41 -63 101 -42 134 23 34 18 45 -16 41 -28 -3 -36 3
-65 46 -19 26 -34 59 -34 73 0 14 -4 22 -10 18 -17 -11 -41 63 -43 131 -2 64
-17 92 -17 32 0 -18 -3 -43 -6 -55 l-6 -23 -24 23 c-13 12 -24 31 -24 42 -1
36 -12 65 -26 65 -16 0 -34 31 -34 58 0 11 -14 46 -30 79 -19 35 -29 49 -28
34 5 -38 -19 -36 -37 3 -10 20 -23 36 -30 36 -6 0 -20 10 -31 21 -16 18 -158
119 -168 119 -2 0 -52 48 -111 106 -59 58 -128 119 -153 135 -24 15 -51 37
-59 49 -8 11 -25 20 -40 20 -26 0 -26 -1 -7 -14 28 -21 9 -32 -21 -12 -14 9
-61 28 -103 42 -42 14 -86 29 -97 34 -60 25 -114 40 -143 40 -17 0 -49 6 -69
14 -21 7 -72 21 -113 31 -70 17 -94 25 -178 61 -40 17 -42 17 -42 0 0 -7 10
-16 22 -19 12 -4 19 -9 15 -13 -8 -8 -64 14 -96 38 -13 10 -36 18 -51 18 -24
0 -101 23 -153 45 -13 6 -16 4 -11 -10 6 -15 0 -16 -57 -10 -61 6 -63 5 -44
-10 19 -16 16 -17 -55 -10 -41 4 -102 9 -135 11 -124 7 -211 17 -227 26 -11 5
-18 5 -18 0 0 -16 23 -28 75 -42 28 -7 66 -21 85 -30 19 -10 55 -21 80 -25 89
-13 123 -26 111 -38 -8 -8 -64 -13 -169 -14 -86 -1 -166 -6 -177 -11 -51 -24
-131 -32 -225 -22 -52 5 -103 10 -114 10 -13 0 -16 5 -12 16 5 14 4 15 -9 4
-8 -7 -41 -13 -72 -14 -53 -1 -57 1 -63 24 -5 20 -12 24 -38 24 -18 -1 -32 3
-32 7 0 5 3 9 8 9 4 0 5 24 3 52 l-4 53 -19 -43 c-10 -23 -23 -40 -28 -37 -7
4 -32 64 -46 114 -4 11 -7 10 -18 -4 -13 -18 -14 -18 -24 2 -9 17 -22 20 -72
21 -56 1 -60 -1 -60 -22z m1330 -196 c21 -7 19 -8 -17 -9 -23 -1 -45 4 -48 9
-7 12 29 12 65 0z m-335 -10 c4 -6 -16 -10 -52 -10 -41 0 -54 3 -43 10 20 13
87 13 95 0z m-736 -170 c12 -36 -1 -39 -23 -5 -20 30 -20 35 -2 35 8 0 19 -13
25 -30z m-527 -291 c9 -19 17 -28 18 -20 0 11 5 10 20 -4 24 -22 27 -50 4 -41
-9 3 -22 6 -30 6 -8 0 -14 6 -14 13 0 7 -13 23 -29 36 -16 13 -27 30 -24 37 8
22 38 8 55 -27z m178 16 c11 -13 10 -14 -4 -9 -9 3 -16 10 -16 15 0 13 6 11
20 -6z m-10 -40 c7 -14 10 -28 6 -32 -9 -9 -36 25 -36 44 0 21 16 15 30 -12z
m-269 -381 c21 -24 22 -26 3 -16 -25 13 -50 42 -37 42 5 0 20 -12 34 -26z
m-106 -65 c4 -6 5 -12 2 -15 -7 -7 -37 7 -37 17 0 13 27 11 35 -2z m35 -29 c0
-5 -5 -10 -11 -10 -5 0 -7 5 -4 10 3 6 8 10 11 10 2 0 4 -4 4 -10z m-30 -30
c0 -5 -7 -10 -15 -10 -8 0 -15 5 -15 10 0 6 7 10 15 10 8 0 15 -4 15 -10z m57
-66 c-3 -3 -12 -4 -19 -1 -8 3 -5 6 6 6 11 1 17 -2 13 -5z m750 -40 c-3 -3
-12 -4 -19 -1 -8 3 -5 6 6 6 11 1 17 -2 13 -5z m3083 -209 c13 -14 21 -28 17
-31 -7 -7 -54 26 -61 44 -9 21 20 13 44 -13z m-3916 -109 c-8 -33 -50 -64 -65
-49 -7 7 1 23 26 48 39 42 50 42 39 1z m308 -141 c-5 -28 -22 -44 -22 -21 0
21 11 46 20 46 4 0 5 -11 2 -25z m-20 -76 c-3 -20 -8 -27 -14 -21 -11 11 -2
52 11 52 4 0 6 -14 3 -31z m-39 -84 c-5 -13 -23 -22 -23 -11 0 15 14 35 21 31
4 -3 6 -12 2 -20z m-96 -287 c-3 -7 -5 -2 -5 12 0 14 2 19 5 13 2 -7 2 -19 0
-25z m2170 0 c-3 -8 -6 -5 -6 6 -1 11 2 17 5 13 3 -3 4 -12 1 -19z m-2129
-174 c-7 -15 -14 -21 -16 -15 -2 7 2 18 8 26 18 22 21 18 8 -11z m2112 -34 c0
-5 -5 -10 -11 -10 -5 0 -7 5 -4 10 3 6 8 10 11 10 2 0 4 -4 4 -10z m1200 -97
c0 -20 6 -44 14 -52 18 -21 29 -71 16 -71 -5 0 -10 7 -10 15 0 8 -9 15 -21 15
-11 0 -18 4 -15 9 3 5 -1 23 -10 40 -11 22 -23 31 -40 31 -33 0 -30 13 9 33
49 24 57 21 57 -20z m-716 -3 c32 0 98 -34 88 -45 -4 -5 -1 -5 5 -1 7 4 22 1
33 -7 32 -22 8 -33 -119 -52 -63 -9 -120 -19 -125 -23 -19 -12 -80 -31 -85
-27 -2 3 2 11 9 20 10 13 9 15 -8 15 -33 0 -36 19 -5 26 29 8 93 53 93 67 0 4
-15 8 -32 8 -27 1 -23 3 16 10 27 4 53 12 59 18 6 6 16 7 28 1 10 -6 29 -10
43 -10z m593 -206 c-3 -3 -12 -4 -19 -1 -8 3 -5 6 6 6 11 1 17 -2 13 -5z
m-412 -165 c13 -24 12 -28 -14 -53 -15 -14 -31 -26 -36 -26 -5 0 -16 -7 -26
-16 -12 -11 -25 -14 -36 -9 -10 5 -28 7 -40 6 -11 -1 -24 3 -28 8 -3 6 -15 11
-27 11 -14 0 -18 5 -14 16 4 9 2 22 -4 29 -7 9 -6 16 5 25 8 7 15 18 15 25 0
13 77 52 86 43 3 -3 17 -3 32 2 30 8 63 -15 87 -61z m265 -154 c0 -8 11 -23
25 -33 26 -21 20 -37 -9 -26 -17 7 -23 -11 -6 -19 6 -3 5 -4 -2 -3 -7 1 -17
12 -22 23 -13 27 -49 50 -54 34 -6 -17 -22 -13 -22 7 1 22 60 53 78 40 6 -6
12 -16 12 -23z m1337 -4420 c46 -31 59 -122 22 -169 -40 -51 -116 -30 -170 45
-19 27 -20 35 -10 69 22 75 91 99 158 55z"/>
<path d="M6452 451 c3 -35 -15 -47 -20 -13 -4 26 -14 28 -32 7 -22 -27 -4 -45
45 -45 52 0 65 16 47 56 -17 35 -43 32 -40 -5z"/>
<path d="M3860 7992 c0 -5 27 -23 60 -40 32 -17 57 -26 54 -19 -2 7 -24 20
-49 30 -25 11 -45 23 -45 28 0 5 -4 9 -10 9 -5 0 -10 -4 -10 -8z"/>
<path d="M2214 7955 c26 -20 42 -19 22 0 -8 8 -21 15 -28 15 -8 -1 -6 -6 6
-15z"/>
<path d="M2627 7930 c3 -11 9 -20 13 -20 5 0 6 9 3 20 -3 11 -9 20 -13 20 -5
0 -6 -9 -3 -20z"/>
<path d="M2185 7870 c3 -5 14 -10 23 -10 15 0 15 2 2 10 -20 13 -33 13 -25 0z"/>
<path d="M2907 7833 c-4 -3 -7 -11 -7 -17 0 -6 5 -5 12 2 6 6 9 14 7 17 -3 3
-9 2 -12 -2z"/>
<path d="M1985 7450 c4 -6 11 -8 16 -5 14 9 11 15 -7 15 -8 0 -12 -5 -9 -10z"/>
<path d="M2205 7380 c3 -5 8 -10 11 -10 2 0 4 5 4 10 0 6 -5 10 -11 10 -5 0
-7 -4 -4 -10z"/>
<path d="M1780 7312 c0 -5 6 -16 13 -27 10 -13 16 -15 21 -6 4 6 2 18 -4 26
-13 16 -30 20 -30 7z"/>
<path d="M1860 7275 c0 -8 7 -15 16 -15 14 0 14 3 4 15 -7 8 -14 15 -16 15 -2
0 -4 -7 -4 -15z"/>
<path d="M1805 7240 c3 -5 10 -10 16 -10 5 0 9 5 9 10 0 6 -7 10 -16 10 -8 0
-12 -4 -9 -10z"/>
<path d="M5480 7223 c0 -5 5 -15 10 -23 8 -12 10 -11 10 8 0 12 -4 22 -10 22
-5 0 -10 -3 -10 -7z"/>
<path d="M5500 7165 c0 -5 5 -17 10 -25 5 -8 10 -10 10 -5 0 6 -5 17 -10 25
-5 8 -10 11 -10 5z"/>
<path d="M5671 6844 c0 -11 3 -14 6 -6 3 7 2 16 -1 19 -3 4 -6 -2 -5 -13z"/>
<path d="M5820 6695 c0 -8 2 -15 4 -15 2 0 6 7 10 15 3 8 1 15 -4 15 -6 0 -10
-7 -10 -15z"/>
<path d="M4387 6354 c-2 -2 -293 -32 -361 -38 -17 -1 -31 -7 -34 -14 -4 -12
85 -8 168 8 25 5 117 12 205 16 180 8 171 8 318 4 103 -3 129 1 113 18 -6 5
-402 11 -409 6z"/>
<path d="M4850 6330 c0 -5 20 -10 43 -10 24 0 70 -9 103 -20 45 -15 54 -16 39
-4 -11 8 -31 17 -45 20 -14 3 -33 9 -42 15 -23 12 -98 12 -98 -1z"/>
<path d="M1790 6205 c-8 -9 -8 -15 -2 -15 12 0 26 19 19 26 -2 2 -10 -2 -17
-11z"/>
<path d="M4500 6180 c-30 -5 -73 -11 -94 -14 -43 -7 -53 -12 -43 -23 4 -3 33
-2 65 4 81 15 331 16 419 2 67 -11 96 -8 80 7 -23 23 -325 40 -427 24z"/>
<path d="M4180 6131 c-19 -4 -44 -12 -55 -19 -19 -11 -18 -11 7 -12 15 0 30 5
33 10 3 6 21 10 38 11 18 0 41 4 52 9 17 7 15 9 -10 8 -16 0 -46 -3 -65 -7z"/>
<path d="M3256 5669 c-54 -9 -103 -26 -126 -44 -8 -7 -26 -15 -40 -18 -39 -9
-93 -30 -123 -50 -32 -21 -37 -21 -37 -2 0 19 -11 19 -36 0 -10 -8 -36 -15
-57 -15 -35 0 -97 -23 -97 -36 0 -2 10 -4 23 -3 12 1 36 1 52 0 25 -1 27 -3
13 -12 -19 -11 -25 -48 -8 -50 6 -1 15 -2 20 -3 16 -2 13 -21 -4 -24 -9 -2
-16 1 -16 7 0 19 -34 11 -57 -13 -22 -23 -22 -24 -3 -29 14 -4 20 0 20 12 0
13 12 17 63 19 34 2 76 3 94 4 18 1 35 8 37 15 4 9 15 12 33 8 16 -4 38 -8 50
-11 12 -2 28 2 35 9 20 19 110 38 125 25 9 -7 22 -3 43 12 27 19 36 21 56 11
37 -16 57 -14 50 5 -5 14 -1 16 32 11 21 -4 55 -2 76 4 35 10 37 12 31 42 -4
18 -12 37 -19 42 -7 6 -11 16 -8 23 2 8 -9 18 -27 25 -17 6 -31 15 -31 18 0 4
-19 10 -42 14 -24 3 -50 8 -58 9 -8 2 -37 0 -64 -5z"/>
<path d="M1951 5554 c0 -11 3 -14 6 -6 3 7 2 16 -1 19 -3 4 -6 -2 -5 -13z"/>
<path d="M2020 5476 c0 -9 -7 -16 -16 -16 -11 0 -14 -5 -10 -16 3 -9 6 -20 6
-25 0 -5 7 -9 15 -9 18 0 19 12 3 28 -9 9 -8 12 5 12 18 0 23 25 7 35 -5 3
-10 -1 -10 -9z"/>
<path d="M3280 5351 c-29 -5 -35 -10 -35 -31 0 -19 9 -29 35 -42 19 -10 31
-18 25 -19 -5 0 10 -8 34 -18 l43 -18 -109 5 c-75 3 -123 0 -149 -9 -22 -7
-46 -13 -55 -14 -24 -2 -62 -32 -50 -40 18 -11 12 -35 -9 -35 -11 0 -20 -6
-20 -14 0 -7 -12 -16 -27 -19 -19 -4 -33 -17 -43 -39 -16 -36 -68 -67 -111
-68 -27 0 -54 -22 -42 -33 3 -4 24 -7 45 -7 31 0 41 -5 50 -25 6 -14 17 -25
23 -25 7 0 24 -9 38 -21 26 -19 26 -21 10 -45 -15 -23 -15 -26 3 -39 31 -24
60 -27 94 -10 23 12 35 13 44 5 8 -6 33 -10 57 -9 56 2 128 -11 136 -24 3 -5
6 -19 7 -31 1 -17 8 -21 36 -22 19 0 54 -6 77 -13 28 -8 49 -8 67 -1 14 5 26
7 26 4 0 -3 7 1 15 10 9 8 26 13 40 10 21 -4 28 3 49 43 20 41 34 82 41 128 6
31 19 55 31 55 8 0 14 -6 14 -12 0 -7 8 2 16 19 12 24 14 36 6 46 -6 7 -14 40
-18 73 -10 87 -47 145 -119 183 -22 12 -47 25 -55 30 -121 74 -154 85 -220 72z
m-90 -160 c0 -11 -25 -21 -51 -21 -19 0 -25 11 -12 23 10 10 63 8 63 -2z m38
-153 c2 -4 10 -8 17 -8 19 0 48 -64 41 -88 -12 -38 -138 -68 -150 -37 -3 8
-14 15 -24 15 -10 0 -29 11 -41 24 -21 23 -22 26 -7 54 25 49 51 62 110 55 28
-3 53 -10 54 -15z m382 -28 c0 -5 -2 -10 -4 -10 -3 0 -8 5 -11 10 -3 6 -1 10
4 10 6 0 11 -4 11 -10z"/>
<path d="M2251 5184 c0 -11 3 -14 6 -6 3 7 2 16 -1 19 -3 4 -6 -2 -5 -13z"/>
<path d="M2895 5120 c-3 -5 1 -10 9 -10 9 0 16 5 16 10 0 6 -4 10 -9 10 -6 0
-13 -4 -16 -10z"/>
<path d="M2303 5052 c-23 -3 -36 -35 -26 -70 3 -12 1 -22 -5 -22 -5 0 -10 -16
-10 -35 0 -25 5 -36 19 -40 24 -8 39 1 39 25 0 10 5 22 10 25 11 7 13 95 2
110 -4 6 -17 9 -29 7z"/>
<path d="M5237 4784 c-8 -8 1 -24 14 -24 5 0 9 7 9 15 0 15 -12 20 -23 9z"/>
<path d="M5161 4766 c-16 -19 -11 -29 8 -17 7 5 12 14 9 21 -3 9 -8 7 -17 -4z"/>
<path d="M5951 4713 c1 -44 3 -52 9 -33 12 36 12 90 0 90 -6 0 -10 -25 -9 -57z"/>
<path d="M1770 4645 c0 -8 6 -15 14 -15 7 0 17 -8 20 -17 24 -65 110 -173 138
-173 19 0 5 -35 -27 -71 -19 -22 -35 -44 -35 -49 0 -19 32 -24 78 -11 33 8 48
9 58 0 18 -15 22 6 28 156 l5 120 -57 23 c-124 51 -222 67 -222 37z"/>
<path d="M2215 4600 c3 -5 8 -10 11 -10 2 0 4 5 4 10 0 6 -5 10 -11 10 -5 0
-7 -4 -4 -10z"/>
<path d="M2191 4564 c0 -11 3 -14 6 -6 3 7 2 16 -1 19 -3 4 -6 -2 -5 -13z"/>
<path d="M4435 4560 c-3 -5 1 -10 9 -10 8 0 18 5 21 10 3 6 -1 10 -9 10 -8 0
-18 -4 -21 -10z"/>
<path d="M4950 4490 c0 -5 5 -10 10 -10 6 0 10 5 10 10 0 6 -4 10 -10 10 -5 0
-10 -4 -10 -10z"/>
<path d="M4351 4383 c-11 -20 5 -58 38 -87 12 -11 21 -23 21 -28 0 -5 18 -33
41 -63 49 -64 66 -125 48 -168 -12 -28 -13 -29 -20 -8 -6 14 -17 21 -33 21
-28 0 -98 38 -91 50 11 18 -35 38 -102 44 l-72 6 -30 -37 c-17 -21 -31 -42
-31 -47 0 -5 -6 -17 -14 -25 -8 -9 -16 -36 -19 -61 -3 -25 -11 -64 -17 -88 -6
-24 -8 -47 -5 -53 4 -5 2 -9 -4 -9 -5 0 -12 -8 -16 -19 -4 -12 -12 -17 -28
-14 -32 6 -62 -24 -81 -81 -15 -46 -15 -49 5 -74 17 -23 19 -35 14 -88 -7 -60
-7 -62 22 -76 27 -13 30 -13 48 9 11 12 29 23 40 23 18 1 19 1 3 11 -24 14
-23 39 2 39 23 0 24 3 8 30 -10 16 -10 26 1 52 8 18 16 50 18 71 3 21 12 41
19 44 17 6 54 -24 54 -43 0 -7 14 -23 30 -36 17 -12 30 -29 30 -39 0 -9 7 -20
16 -23 13 -5 15 -15 11 -41 -5 -29 -3 -35 12 -35 42 0 58 -48 53 -158 -2 -39
-4 -43 -24 -40 -25 3 -37 36 -18 48 8 5 10 15 5 26 -5 11 -9 21 -9 24 -6 31
-40 80 -56 80 -24 0 -35 -17 -21 -34 13 -15 0 -29 -36 -40 -32 -10 -27 -35 10
-49 24 -9 21 -22 -10 -52 -43 -41 -97 -73 -129 -77 -23 -2 -30 -9 -32 -30 -3
-23 -9 -27 -45 -31 -23 -2 -46 0 -51 4 -6 5 -30 9 -54 9 -51 0 -182 -28 -182
-39 0 -4 37 -14 83 -21 45 -7 105 -16 132 -21 28 -5 97 -15 155 -22 72 -9 116
-20 141 -35 20 -13 43 -20 52 -17 17 7 33 -10 18 -20 -6 -3 -8 -12 -4 -21 3
-8 -3 -24 -13 -36 -13 -14 -15 -22 -7 -25 7 -2 9 -11 6 -19 -3 -8 -1 -14 3
-14 5 0 15 -4 23 -9 11 -7 7 -17 -20 -51 -28 -34 -31 -43 -19 -50 8 -6 19 -10
23 -10 14 0 63 28 76 44 10 12 24 14 50 10 27 -4 41 -2 50 10 9 10 22 14 37
10 13 -3 42 1 63 9 35 14 40 14 45 1 8 -22 28 -6 25 19 -3 33 11 99 27 125 20
31 6 118 -19 114 -18 -3 -24 23 -7 33 12 7 40 -18 40 -37 0 -10 2 -10 9 1 7
11 13 6 26 -18 9 -18 14 -39 11 -47 -3 -7 -1 -16 4 -19 6 -4 14 5 20 19 7 19
17 26 35 26 14 0 28 7 31 15 15 37 26 -3 25 -85 0 -33 19 -80 32 -80 12 0 77
68 77 81 0 4 -6 14 -13 21 -8 7 -19 30 -26 50 -7 21 -21 40 -32 43 -21 7 -25
20 -9 30 6 4 8 10 5 15 -3 4 4 6 14 3 11 -3 22 -11 25 -19 7 -19 26 -18 26 1
0 8 -4 15 -10 15 -5 0 -7 7 -4 15 4 8 1 15 -5 15 -19 0 -12 17 9 23 13 3 20
14 20 28 0 12 6 30 14 38 8 9 18 40 22 68 6 50 5 53 -20 64 -14 7 -26 19 -26
26 0 8 -4 12 -9 9 -11 -7 -61 32 -61 48 0 16 32 46 48 46 7 0 12 -7 12 -15 0
-24 27 -6 33 22 3 18 -4 34 -24 58 -16 18 -29 37 -29 42 0 23 -73 83 -113 94
-23 6 -52 15 -64 20 -13 5 -29 6 -37 3 -8 -3 -24 4 -36 16 -20 20 -21 29 -16
151 4 124 3 131 -21 165 -13 20 -27 49 -30 65 -3 16 -12 34 -19 40 -8 6 -14
17 -14 23 0 6 -23 36 -50 66 -28 30 -50 58 -50 62 0 16 -49 8 -59 -9z m-146
-353 c-19 -19 -31 -26 -34 -19 -2 7 6 21 19 31 36 29 46 21 15 -12z m307 -691
c-15 -6 -30 -5 -40 1 -13 7 -8 9 23 9 35 0 37 -1 17 -10z m48 -199 c0 -5 -7
-10 -15 -10 -8 0 -15 5 -15 10 0 6 7 10 15 10 8 0 15 -4 15 -10z m-180 -80 c0
-5 -4 -10 -9 -10 -6 0 -13 5 -16 10 -3 6 1 10 9 10 9 0 16 -4 16 -10z"/>
<path d="M5709 4193 c-14 -16 -34 -33 -44 -39 -26 -15 -14 -27 19 -18 18 4 34
20 47 45 23 46 14 50 -22 12z"/>
<path d="M3716 4011 c-62 -41 -82 -111 -36 -126 34 -11 137 15 160 40 28 30
23 54 -19 82 -41 28 -67 29 -105 4z"/>
<path d="M1916 3548 c3 -24 8 -54 10 -67 5 -21 3 -23 -11 -11 -8 7 -17 11 -18
9 -21 -31 -51 -111 -55 -144 -3 -30 -14 -53 -38 -79 -19 -20 -34 -40 -34 -45
0 -4 -20 -36 -45 -71 -25 -35 -45 -69 -45 -76 0 -7 -3 -14 -7 -16 -12 -5 -83
-116 -83 -128 0 -6 -20 -40 -45 -76 -25 -35 -45 -67 -45 -70 0 -3 -19 -31 -43
-62 -23 -32 -51 -70 -61 -87 -11 -16 -32 -43 -48 -60 -15 -16 -28 -33 -28 -37
0 -12 -74 -91 -256 -272 -154 -154 -208 -205 -375 -355 -39 -35 -48 -48 -43
-66 5 -19 2 -23 -13 -20 -10 1 -26 -5 -37 -14 -40 -35 -216 -121 -248 -121
-16 0 -28 -4 -28 -9 0 -5 -15 -13 -33 -16 -17 -4 -37 -12 -44 -17 -20 -16 -86
-48 -99 -48 -23 0 -80 -45 -110 -85 l-29 -40 -3 -732 -3 -733 1639 0 1639 0
-13 92 c-8 51 -19 123 -24 160 -6 37 -10 88 -10 115 -1 56 -40 343 -69 493
-11 58 -25 146 -31 195 -6 50 -22 133 -34 185 -13 52 -27 124 -31 160 -4 36
-18 107 -31 159 -13 52 -21 98 -18 103 10 16 22 8 34 -22 7 -17 21 -36 30 -43
9 -7 28 -28 41 -47 44 -64 202 -232 193 -205 -4 11 -20 32 -36 48 -30 29 -36
53 -16 59 9 3 6 21 -10 65 -12 33 -22 66 -22 74 0 7 -20 55 -45 106 -25 50
-45 99 -45 108 0 9 -16 49 -35 90 -19 41 -41 104 -50 141 -8 37 -22 81 -29 98
-26 57 -76 219 -76 247 0 15 -7 64 -16 109 -8 46 -19 151 -22 235 -9 176 -19
205 -58 160 -17 -20 -22 -35 -17 -56 4 -22 2 -29 -11 -29 -19 0 -21 -11 -4
-28 8 -8 8 -15 -1 -26 -7 -9 -15 -32 -17 -53 -2 -21 -5 -51 -6 -67 -2 -23 -9
-31 -32 -37 -16 -5 -34 -5 -39 -2 -6 4 -8 -2 -5 -15 4 -14 1 -22 -6 -22 -7 0
-11 12 -10 32 2 26 -7 40 -46 80 l-48 49 22 24 c13 14 26 25 30 25 4 0 23 16
42 36 20 20 42 33 50 30 9 -3 14 2 14 14 0 11 3 20 8 20 4 0 20 11 35 25 38
36 37 85 -2 117 -16 14 -32 36 -36 49 -3 13 -20 53 -37 89 -43 89 -53 116 -75
184 -21 68 -49 95 -90 89 -26 -4 -29 -8 -25 -34 3 -17 0 -29 -7 -29 -6 0 -10
-3 -9 -7 5 -18 -22 -72 -42 -83 -11 -6 -49 -13 -82 -16 -79 -6 -88 -14 -15
-14 99 0 80 -32 -28 -45 -55 -7 -74 -17 -75 -37 0 -5 5 -8 12 -8 19 0 108 -61
119 -83 8 -14 8 -30 -1 -58 -7 -22 -17 -39 -21 -39 -4 0 -17 -20 -29 -44 -11
-24 -27 -47 -34 -49 -8 -3 -19 -29 -26 -59 -12 -50 -48 -119 -68 -132 -6 -3
-13 -26 -16 -51 -4 -25 -11 -45 -16 -45 -4 0 -17 -15 -28 -34 -20 -34 -82 -70
-137 -82 l-30 -5 -1 278 c-1 170 -6 303 -14 343 -6 36 -14 77 -17 93 -4 23 -2
27 17 27 20 0 22 4 17 55 -2 30 -9 61 -14 67 -6 7 -13 56 -17 108 -3 52 -11
99 -16 104 -6 6 -10 20 -10 33 0 18 -6 23 -25 23 -24 0 -25 -2 -19 -42z m-12
-294 c3 -8 -5 -32 -19 -52 -14 -20 -25 -40 -25 -44 0 -4 -16 -33 -36 -64 -20
-31 -42 -75 -50 -99 -15 -42 -58 -94 -70 -82 -9 8 14 75 42 124 13 23 24 48
24 55 0 17 108 178 119 178 5 0 12 -7 15 -16z m-1199 -1404 c-3 -5 -16 -10
-28 -10 -18 0 -19 2 -7 10 20 13 43 13 35 0z m-242 -1442 c27 -37 16 -74 -28
-95 -32 -15 -38 -15 -69 0 -49 23 -59 72 -21 104 37 32 90 28 118 -9z m47
-162 c14 -22 16 -34 9 -48 -8 -16 -24 -18 -118 -18 -115 0 -135 8 -121 45 19
49 71 66 168 55 33 -4 47 -11 62 -34z"/>
<path d="M3332 3298 c-7 -7 -12 -18 -12 -26 0 -8 -9 -26 -21 -40 -20 -26 -20
-27 -2 -30 10 -2 22 -8 28 -13 17 -16 64 -10 75 10 8 17 15 18 46 9 45 -12 57
-3 18 14 -37 15 -84 58 -84 75 0 16 -32 17 -48 1z"/>
<path d="M5263 3085 c-13 -9 -23 -22 -23 -29 0 -10 -52 -89 -70 -106 -11 -11
-30 -50 -30 -63 0 -8 -12 -19 -27 -26 -16 -8 -35 -17 -43 -20 -8 -4 -23 -23
-32 -41 -9 -18 -21 -36 -25 -39 -4 -3 -16 -22 -26 -41 -41 -80 -51 -96 -74
-116 -13 -11 -37 -47 -53 -80 -36 -73 -77 -124 -88 -107 -11 17 -112 -5 -140
-30 -17 -16 -25 -18 -34 -9 -18 18 -36 14 -60 -13 l-21 -24 -23 24 c-28 31
-32 31 -69 1 -25 -21 -28 -28 -19 -43 7 -10 20 -17 33 -15 29 4 26 -14 -8 -49
-22 -21 -39 -29 -65 -29 -25 0 -36 -4 -36 -15 0 -22 -19 -18 -40 8 -18 21 -19
21 -26 3 -4 -10 -2 -27 4 -37 13 -21 2 -32 -23 -23 -11 5 -18 0 -22 -14 -6
-26 -29 -35 -54 -22 -10 6 -19 8 -19 5 0 -3 -9 -1 -20 5 -17 9 -20 8 -20 -9 0
-11 5 -23 10 -26 6 -3 10 -15 10 -26 0 -10 -4 -19 -10 -19 -17 0 -11 -36 10
-60 11 -13 20 -27 20 -33 0 -26 339 35 348 62 5 15 32 14 32 -1 0 -9 3 -10 8
-2 4 6 29 21 56 35 27 13 51 29 53 36 3 7 11 13 19 13 8 0 14 3 14 8 0 4 10
12 22 17 13 6 25 23 29 41 8 43 19 60 29 44 6 -9 11 -7 19 7 5 11 24 26 40 33
32 13 49 46 33 62 -7 7 1 28 21 64 25 43 33 51 38 37 5 -13 9 -6 14 24 4 23
11 41 15 40 12 -4 59 59 80 109 16 36 23 45 30 34 11 -18 12 -17 40 55 13 33
29 67 37 76 7 8 13 25 13 37 0 17 36 70 70 102 17 16 38 60 44 92 4 21 14 44
22 53 9 8 14 24 12 35 -3 19 -4 20 -25 5z m-920 -921 c3 -4 0 -13 -8 -21 -8
-8 -15 -26 -15 -39 l0 -25 -24 28 c-26 31 -25 43 5 43 10 0 19 5 19 10 0 11
13 13 23 4z m67 -56 c0 -4 -9 0 -19 9 -11 9 -17 21 -14 26 6 10 33 -19 33 -35z"/>
<path d="M4598 2813 c-25 -6 -23 -30 3 -38 23 -8 20 -28 -5 -33 -21 -5 -46 15
-46 37 0 12 -8 16 -34 15 -73 -4 -96 -29 -96 -104 0 -22 -4 -40 -8 -40 -12 0
-28 -59 -28 -100 1 -26 6 -36 21 -39 11 -2 26 -12 33 -22 13 -18 49 -28 38
-10 -9 14 44 33 59 21 16 -13 25 -3 25 30 0 20 8 30 35 43 41 20 56 50 44 90
-6 21 -4 29 7 33 51 15 50 14 22 31 -17 11 -29 29 -33 50 -6 36 -12 41 -37 36z
m-113 -108 c0 -5 -10 -11 -22 -13 -16 -2 -23 2 -23 13 0 11 7 15 23 13 12 -2
22 -7 22 -13z"/>
<path d="M4590 2536 c0 -8 5 -18 10 -21 6 -3 10 1 10 9 0 8 -4 18 -10 21 -5 3
-10 -1 -10 -9z"/>
<path d="M4570 2466 c0 -14 5 -26 10 -26 6 0 10 9 10 19 0 11 -4 23 -10 26 -6
4 -10 -5 -10 -19z"/>
<path d="M689 1968 c-37 -34 -79 -48 -145 -48 -54 0 -75 -5 -101 -22 -18 -13
-33 -26 -33 -30 0 -5 -7 -8 -15 -8 -8 0 -37 -20 -65 -45 -28 -25 -54 -45 -58
-45 -5 0 -31 -19 -60 -42 -28 -24 -70 -56 -92 -73 -23 -16 -50 -38 -60 -47
-10 -9 -28 -21 -39 -28 -15 -8 -21 -21 -21 -45 0 -19 5 -35 11 -35 6 0 8 8 4
19 -6 21 38 64 77 76 13 4 31 14 41 23 20 18 107 52 152 59 17 3 36 10 43 16
8 6 21 12 30 13 69 9 165 74 295 196 28 26 55 49 61 51 8 3 8 8 0 16 -9 10
-14 9 -25 -1z"/>
<path d="M4962 1578 c6 -18 28 -21 28 -4 0 9 -7 16 -16 16 -9 0 -14 -5 -12
-12z"/>
<path d="M5096 1316 c-17 -27 -21 -46 -8 -46 8 0 34 61 28 67 -2 2 -11 -8 -20
-21z"/>
</g>
</svg>
